<?xml version="1.0" standalone="no"?>
<!DOCTYPE svg PUBLIC "-//W3C//DTD SVG 20010904//EN"
 "http://www.w3.org/TR/2001/REC-SVG-20010904/DTD/svg10.dtd">
<svg version="1.0" xmlns="http://www.w3.org/2000/svg"
 width="100.000000pt" height="100.000000pt" viewBox="0 0 100.000000 100.000000"
 preserveAspectRatio="xMidYMid meet">
<metadata>
Created by potrace 1.14, written by Peter Selinger 2001-2017
</metadata>
<g transform="translate(0.000000,100.000000) scale(0.100000,-0.100000)"
fill="#000000" stroke="none">
<path d="M796 881 c-33 -36 18 -83 52 -49 18 18 14 46 -7 58 -25 13 -25 13
-45 -9z"/>
<path d="M439 733 c-24 -8 -55 -26 -68 -40 -20 -23 -23 -34 -19 -80 3 -29 1
-53 -4 -53 -4 0 -8 -4 -8 -10 0 -5 7 -6 17 -3 11 4 14 3 9 -5 -4 -7 -3 -12 2
-12 6 0 13 17 17 37 4 21 11 46 16 55 9 17 11 17 42 1 19 -10 54 -17 85 -16
l52 0 0 -33 c0 -25 4 -32 15 -28 31 12 27 -27 -10 -81 -20 -30 -40 -55 -46
-55 -15 0 -11 -26 7 -41 14 -11 13 -14 -8 -25 -30 -17 -75 -17 -113 0 -25 12
-27 15 -12 21 17 7 24 40 9 49 -5 3 -8 -4 -8 -15 1 -16 -11 -26 -49 -40 -69
-27 -85 -49 -85 -116 l0 -54 56 -26 c82 -37 196 -42 284 -11 l65 23 3 58 c4
76 -10 97 -82 121 -31 11 -60 24 -63 29 -3 4 3 18 14 30 34 39 73 103 73 119
0 9 -5 20 -11 24 -6 4 -9 33 -7 76 l3 70 -40 15 c-83 30 -91 31 -136 16z"/>
<path d="M423 583 c9 -2 23 -2 30 0 6 3 -1 5 -18 5 -16 0 -22 -2 -12 -5z"/>
<path d="M513 583 c9 -2 23 -2 30 0 6 3 -1 5 -18 5 -16 0 -22 -2 -12 -5z"/>
<path d="M430 554 c0 -8 5 -12 10 -9 6 4 8 11 5 16 -9 14 -15 11 -15 -7z"/>
<path d="M526 555 c-3 -8 -1 -15 4 -15 6 0 10 7 10 15 0 8 -2 15 -4 15 -2 0
-6 -7 -10 -15z"/>
<path d="M350 486 c0 -2 7 -9 15 -16 9 -7 15 -8 15 -2 0 5 -7 12 -15 16 -8 3
-15 4 -15 2z"/>
<path d="M110 389 c-14 -26 3 -49 35 -49 27 0 39 24 25 51 -14 25 -46 24 -60
-2z"/>
<path d="M760 246 c0 -9 7 -16 16 -16 17 0 14 22 -4 28 -7 2 -12 -3 -12 -12z"/>
</g>
</svg>
