<?xml version="1.0" standalone="no"?>
<!DOCTYPE svg PUBLIC "-//W3C//DTD SVG 20010904//EN"
 "http://www.w3.org/TR/2001/REC-SVG-20010904/DTD/svg10.dtd">
<svg version="1.0" xmlns="http://www.w3.org/2000/svg"
 width="700.000000pt" height="700.000000pt" viewBox="0 0 700.000000 700.000000"
 preserveAspectRatio="xMidYMid meet">
<metadata>
Created by potrace 1.14, written by Peter Selinger 2001-2017
</metadata>
<g transform="translate(0.000000,700.000000) scale(0.100000,-0.100000)"
fill="#000000" stroke="none">
<path d="M1118 6415 c-2 -2 -27 -6 -57 -9 -29 -4 -87 -22 -129 -41 -157 -73
-269 -199 -324 -365 l-22 -65 -1 -2410 c-1 -1937 1 -2423 11 -2474 46 -225
230 -409 454 -454 50 -11 542 -13 2474 -12 2279 1 2414 2 2466 19 194 63 339
205 402 396 l22 65 1 2415 c1 1987 -1 2425 -12 2473 -49 214 -198 374 -413
443 -52 16 -189 18 -2462 19 -1325 1 -2409 1 -2410 0z m4709 -588 c10 -11 9
-4648 -1 -4655 -16 -10 -4647 -8 -4654 2 -3 5 -6 1053 -6 2329 -1 1771 2 2320
11 2325 15 9 4641 7 4650 -1z"/>
<path d="M3403 5455 c-67 -15 -149 -56 -200 -100 -87 -74 -153 -209 -155 -318
-1 -31 -4 -56 -7 -54 -168 94 -331 98 -481 11 -289 -168 -301 -586 -23 -769
48 -31 52 -41 23 -50 -24 -7 -129 -108 -157 -150 -32 -47 -62 -138 -67 -201
-17 -220 126 -424 338 -480 106 -28 240 -12 332 41 l41 24 -2 -27 c-1 -25 7
-84 19 -140 3 -12 19 -48 36 -80 144 -270 514 -322 724 -102 29 31 66 80 81
110 30 59 54 158 49 207 l-3 32 33 -20 c89 -52 230 -73 332 -48 124 30 248
129 302 242 101 208 30 462 -163 584 l-42 26 51 35 c120 80 192 206 200 348
15 249 -180 467 -427 478 -89 4 -169 -13 -236 -50 -24 -13 -44 -24 -45 -24 0
0 -2 21 -3 48 -4 79 -23 144 -64 214 -97 166 -299 255 -486 213z m207 -821
c179 -48 314 -198 339 -375 13 -100 2 -168 -44 -264 -73 -151 -221 -247 -390
-254 -298 -12 -531 280 -454 569 63 236 318 387 549 324z"/>
<path d="M1754 3106 c34 -553 322 -1051 784 -1357 224 -147 460 -236 737 -277
63 -9 383 -9 450 0 167 23 376 85 524 156 446 214 783 605 926 1074 27 91 29
100 45 183 14 71 18 106 26 223 l7 103 -94 -6 c-391 -26 -735 -160 -1019 -396
-159 -132 -288 -282 -392 -454 -43 -70 -128 -257 -158 -345 -37 -110 -80 -311
-80 -376 0 -24 -4 -44 -8 -44 -5 0 -9 6 -9 13 -4 121 -53 336 -110 481 -258
655 -852 1085 -1551 1121 l-85 5 7 -104z m1749 -1541 c-3 -9 -8 -14 -10 -11
-3 3 -2 9 2 15 9 16 15 13 8 -4z"/>
</g>
</svg>
