<?xml version="1.0" standalone="no"?>
<!DOCTYPE svg PUBLIC "-//W3C//DTD SVG 20010904//EN"
 "http://www.w3.org/TR/2001/REC-SVG-20010904/DTD/svg10.dtd">
<svg version="1.0" xmlns="http://www.w3.org/2000/svg"
 width="700.000000pt" height="700.000000pt" viewBox="0 0 700.000000 700.000000"
 preserveAspectRatio="xMidYMid meet">
<metadata>
Created by potrace 1.14, written by Peter Selinger 2001-2017
</metadata>
<g transform="translate(0.000000,700.000000) scale(0.100000,-0.100000)"
fill="#000000" stroke="none">
<path d="M1468 4243 c-406 -1033 -740 -1886 -744 -1895 -6 -17 13 -18 298 -18
l304 0 164 440 164 440 823 0 822 0 19 -52 c11 -29 82 -215 157 -413 75 -198
142 -372 147 -387 l10 -28 304 0 c167 0 304 1 304 3 0 1 -334 853 -743 1892
l-743 1890 -274 3 -275 2 -737 -1877z m1311 359 c162 -433 296 -793 299 -799
3 -10 -120 -13 -597 -13 -331 0 -601 3 -601 7 0 13 595 1593 600 1593 3 0 137
-355 299 -788z"/>
<path d="M5115 2439 l-1180 -1180 -534 537 -534 536 -206 -206 -206 -206 743
-742 742 -743 1361 1360 c748 748 1370 1373 1381 1389 l21 28 -204 204 -204
204 -1180 -1181z"/>
</g>
</svg>
