<svg width="18" height="18" viewBox="0 0 18 18" fill="none" xmlns="http://www.w3.org/2000/svg">
<path d="M10.9582 8.99996L16.9304 3.04163C17.192 2.7801 17.3389 2.42538 17.3389 2.05552C17.3389 1.68566 17.192 1.33094 16.9304 1.06941C16.6689 0.807877 16.3142 0.66095 15.9443 0.66095C15.5745 0.66095 15.2198 0.807877 14.9582 1.06941L8.99989 7.04163L3.04156 1.06941C2.78003 0.807877 2.42531 0.66095 2.05545 0.66095C1.68559 0.66095 1.33087 0.807877 1.06934 1.06941C0.807806 1.33094 0.660879 1.68566 0.660879 2.05552C0.660879 2.42538 0.807806 2.7801 1.06934 3.04163L7.04156 8.99996L1.06934 14.9583C0.939161 15.0874 0.835836 15.241 0.765324 15.4103C0.694812 15.5795 0.658508 15.7611 0.658508 15.9444C0.658508 16.1278 0.694812 16.3093 0.765324 16.4785C0.835836 16.6478 0.939161 16.8014 1.06934 16.9305C1.19845 17.0607 1.35207 17.164 1.52132 17.2345C1.69056 17.305 1.8721 17.3414 2.05545 17.3414C2.2388 17.3414 2.42034 17.305 2.58958 17.2345C2.75883 17.164 2.91245 17.0607 3.04156 16.9305L8.99989 10.9583L14.9582 16.9305C15.0873 17.0607 15.241 17.164 15.4102 17.2345C15.5795 17.305 15.761 17.3414 15.9443 17.3414C16.1277 17.3414 16.3092 17.305 16.4785 17.2345C16.6477 17.164 16.8013 17.0607 16.9304 16.9305C17.0606 16.8014 17.164 16.6478 17.2345 16.4785C17.305 16.3093 17.3413 16.1278 17.3413 15.9444C17.3413 15.7611 17.305 15.5795 17.2345 15.4103C17.164 15.241 17.0606 15.0874 16.9304 14.9583L10.9582 8.99996Z" fill="black"/>
</svg>
