<svg width="40" height="16" viewBox="0 0 40 16" fill="none" xmlns="http://www.w3.org/2000/svg">
<path d="M11.9455 12.6018H6.13228L8.4041 10.1518C11.0323 7.50137 11.7005 6.34319 11.7005 4.51683C11.7005 1.97774 9.49547 0.084555 6.48865 0.084555C3.2591 0.084555 0.987284 2.22274 0.987284 5.22956H3.9941C3.9941 3.75956 4.88501 2.84637 6.33274 2.84637C7.64683 2.84637 8.47092 3.67046 8.47092 4.89546C8.47092 6.20956 7.73592 7.14501 5.99865 8.92683L1.43274 13.6041V15.3636H11.9455V12.6018ZM13.8078 7.85774C13.8078 12.8246 15.8569 15.5864 19.621 15.5864C23.3851 15.5864 25.4565 12.8246 25.4565 7.85774C25.4565 2.86865 23.3406 0.084555 19.621 0.084555C15.9015 0.084555 13.8078 2.86865 13.8078 7.85774ZM16.9928 7.85774C16.9928 4.60592 17.9283 2.84637 19.621 2.84637C21.336 2.84637 22.2715 4.60592 22.2715 7.85774C22.2715 11.0873 21.336 12.8246 19.621 12.8246C17.8838 12.8246 16.9928 11.0873 16.9928 7.85774ZM27.489 7.85774C27.489 12.8246 29.5381 15.5864 33.3022 15.5864C37.0663 15.5864 39.1377 12.8246 39.1377 7.85774C39.1377 2.86865 37.0218 0.084555 33.3022 0.084555C29.5827 0.084555 27.489 2.86865 27.489 7.85774ZM30.674 7.85774C30.674 4.60592 31.6095 2.84637 33.3022 2.84637C35.0172 2.84637 35.9527 4.60592 35.9527 7.85774C35.9527 11.0873 35.0172 12.8246 33.3022 12.8246C31.565 12.8246 30.674 11.0873 30.674 7.85774Z" fill="#191D63"/>
</svg>
