<?xml version="1.0" standalone="no"?>
<!DOCTYPE svg PUBLIC "-//W3C//DTD SVG 20010904//EN"
 "http://www.w3.org/TR/2001/REC-SVG-20010904/DTD/svg10.dtd">
<svg version="1.0" xmlns="http://www.w3.org/2000/svg"
 width="90.000000pt" height="90.000000pt" viewBox="0 0 90.000000 90.000000"
 preserveAspectRatio="xMidYMid meet">

<g transform="translate(0.000000,90.000000) scale(0.100000,-0.100000)"
fill="#000000" stroke="none">
<path d="M380 790 c-11 -11 -20 -24 -20 -30 0 -6 -50 -10 -130 -10 -184 0
-170 24 -170 -300 0 -247 1 -261 20 -280 19 -19 33 -20 370 -20 337 0 351 1
370 20 19 19 20 33 20 280 0 324 14 300 -170 300 -80 0 -130 4 -130 10 0 27
-41 50 -90 50 -37 0 -55 -5 -70 -20z m131 -169 c20 -20 29 -39 29 -61 0 -43
-47 -90 -90 -90 -43 0 -90 47 -90 90 0 22 9 41 29 61 20 20 39 29 61 29 22 0
41 -9 61 -29z m30 -240 c23 -23 29 -39 29 -70 l0 -41 -120 0 -120 0 0 41 c0
31 6 47 29 70 26 26 36 29 91 29 55 0 65 -3 91 -29z"/>
</g>
</svg>
