<svg width="24" height="24" viewBox="0 0 24 24" fill="none" xmlns="http://www.w3.org/2000/svg">
    <path
        d="M12.9976 12.9975L19.0716 13.0045C19.3379 13.0045 19.5933 12.8988 19.7816 12.7105C19.9699 12.5221 20.0757 12.2668 20.0757 12.0005C20.0757 11.7342 19.9699 11.4788 19.7816 11.2905C19.5933 11.1021 19.3379 10.9964 19.0716 10.9964L12.9976 11.0034L13.0046 4.92939C13.0046 4.66308 12.8988 4.40769 12.7105 4.21939C12.5222 4.03108 12.2668 3.92529 12.0005 3.92529C11.7342 3.92529 11.4788 4.03108 11.2905 4.21939C11.1022 4.40769 10.9964 4.66308 10.9964 4.92939L11.0035 11.0034L4.92947 10.9964C4.79746 10.9958 4.66665 11.0214 4.54458 11.0717C4.42251 11.122 4.31161 11.1959 4.21826 11.2892C4.12492 11.3826 4.05097 11.4935 4.00071 11.6156C3.95044 11.7376 3.92484 11.8684 3.92538 12.0005C3.92484 12.1325 3.95044 12.2633 4.00071 12.3853C4.05097 12.5074 4.12491 12.6183 4.21826 12.7117C4.31161 12.805 4.42251 12.8789 4.54458 12.9292C4.66665 12.9795 4.79746 13.0051 4.92947 13.0045L11.0035 12.9975L10.9964 19.0715C10.9959 19.2035 11.0215 19.3343 11.0718 19.4564C11.122 19.5785 11.196 19.6894 11.2893 19.7827C11.3827 19.8761 11.4936 19.95 11.6156 20.0003C11.7377 20.0506 11.8685 20.0762 12.0005 20.0756C12.1325 20.0762 12.2634 20.0506 12.3854 20.0003C12.5075 19.95 12.6184 19.8761 12.7117 19.7827C12.8051 19.6894 12.879 19.5785 12.9293 19.4564C12.9796 19.3343 13.0052 19.2035 13.0046 19.0715L12.9976 12.9975Z" />
</svg>